# xmcd
#
# Track frame offsets: 
#        150
#        18817
#        36725
#        39517
#        53012
#        66262
#        70810
#        86020
#        101397
#        119805
#        135307
#        150435
#        166388
#
# Disc length: 2463 seconds
#
# Revision: 0
# Processed by: cddbd v1.5.2PL0 Copyright (c) Steve Scherf et al.
# Submitted via: ExactAudioCopy v0.99pb4
#
DISCID=a9099d0d
DTITLE=Warren G - Regulate... G Funk Era
DYEAR=1994
DGENRE=Gangsta Rap
TTITLE0=Regulate
TTITLE1=Do You See
TTITLE2=Gangsta Sermon
TTITLE3=Recognize
TTITLE4=Super Soul Sis
TTITLE5=94' Ho Draft
TTITLE6=So Many Ways
TTITLE7=This DJ
TTITLE8=This Is The Shack
TTITLE9=What's Next
TTITLE10=And Ya Don't Stop
TTITLE11=Runnin Wit No Breaks
TTITLE12=Regulate (Remix)
EXTD=
EXTT0=
EXTT1=
EXTT2=
EXTT3=
EXTT4=
EXTT5=
EXTT6=
EXTT7=
EXTT8=
EXTT9=
EXTT10=
EXTT11=
EXTT12=
PLAYORDER=
